<?xml version="1.0" standalone="no"?>
<!DOCTYPE svg PUBLIC "-//W3C//DTD SVG 20010904//EN"
 "http://www.w3.org/TR/2001/REC-SVG-20010904/DTD/svg10.dtd">
<svg version="1.0" xmlns="http://www.w3.org/2000/svg"
 width="2060.000000pt" height="2060.000000pt" viewBox="0 0 2060.000000 2060.000000"
 preserveAspectRatio="xMidYMid meet">
<metadata>
Created by potrace 1.11, written by Peter Selinger 2001-2013
</metadata>
<g transform="translate(0.000000,2060.000000) scale(0.100000,-0.100000)"
fill="#000000" stroke="none">
<path d="M5559 19868 c-2 -5 -7 -522 -13 -1413 -4 -484 -9 -1109 -11 -1390 -3
-280 -7 -868 -10 -1305 -3 -437 -7 -1020 -10 -1295 -2 -275 -7 -855 -10 -1290
-3 -434 -7 -1053 -10 -1375 -3 -322 -7 -911 -10 -1310 -3 -399 -7 -997 -10
-1330 -3 -333 -7 -906 -10 -1275 -3 -368 -7 -967 -10 -1330 -3 -363 -7 -970
-10 -1350 -3 -379 -8 -964 -11 -1300 l-5 -609 39 -36 c22 -19 104 -96 182
-170 78 -74 161 -153 183 -174 23 -21 114 -107 202 -190 88 -83 198 -187 244
-231 47 -44 121 -114 166 -156 44 -42 99 -94 121 -115 23 -22 106 -100 184
-174 79 -74 178 -167 219 -206 42 -40 101 -95 131 -124 30 -28 88 -83 127
-121 l73 -70 2107 4 c1160 2 2135 6 2168 10 33 3 85 9 115 13 30 4 62 8 70 9
41 5 127 18 145 21 11 2 49 9 85 15 284 45 705 186 1000 334 399 200 722 437
1071 785 399 398 694 825 884 1280 15 36 33 79 41 95 38 82 171 522 188 620 3
17 12 66 20 110 24 122 34 189 41 260 11 105 16 154 20 180 10 61 15 348 20
1020 3 380 8 978 10 1330 3 352 7 926 10 1275 3 349 7 961 10 1360 3 399 8
973 10 1275 21 2604 21 2654 11 2820 -6 110 -18 227 -41 380 -60 406 -203 853
-384 1199 -86 164 -292 491 -360 571 -14 17 -42 51 -61 75 -56 71 -132 162
-169 205 -103 117 -2051 2070 -2146 2152 -375 321 -782 560 -1225 720 -225 81
-543 157 -785 187 -66 9 -138 19 -160 22 -37 7 -4434 18 -4436 12z m5254
-4863 c-1 -127 -4 -646 -8 -1155 -4 -509 -8 -1096 -10 -1305 -2 -209 -6 -792
-10 -1295 -3 -503 -8 -1106 -10 -1340 -2 -234 -7 -846 -10 -1360 -9 -1311 -10
-1357 -35 -1480 -26 -127 -52 -203 -101 -300 -76 -148 -183 -284 -319 -403
-74 -66 -231 -167 -257 -167 -8 0 -10 151 -7 488 5 801 14 1998 19 2627 5 596
12 1490 20 2635 2 344 7 929 10 1300 3 371 8 967 10 1324 3 378 9 652 14 655
5 4 164 6 353 6 l343 0 -2 -230z"/>
</g>
</svg>
